#!OML:ASF F:\VICON\USERDATA\INSTALL\rory3\rory3.ASF
:FULLY-SPECIFIED
:DEGREES
1966
root -2.82599 18.4541 4.35465 8.22874 -14.1912 4.46732
lowerback 14.8388 -1.82624 1.36136
upperback 2.75471 -2.10074 1.81813
thorax -5.37175 -1.04629 1.55088
lowerneck -1.89453 -3.57324 -1.20861
upperneck -24.7894 -4.40304 4.24947
head -7.13614 -2.4759 1.84565
rclavicle -2.18663e-014 -1.90833e-014
rhumerus 0.0308573 -21.8269 -33.4912
rradius 116.605
rwrist 22.358
rhand -66.843 355.055
rfingers 7.12502
rthumb -38.6387 -30.568
lclavicle -2.18663e-014 -1.90833e-014
lhumerus -36.1759 -2.06513 73.3638
lradius 48.3044
lwrist -5.657
lhand -34.4093 17.3191
lfingers 7.12502
lthumb -7.57465 47.1635
rfemur -33.0928 22.0286 3.52709
rtibia 34.8105
rfoot -12.1126 -7.53339
rtoes -6.71987
lfemur -0.915764 -0.143346 -17.8901
ltibia 13.2311
lfoot -19.097 24.2345
ltoes -11.7419
1967
root -2.87612 18.4625 4.3951 8.51154 -14.1852 4.33904
lowerback 14.8563 -1.82739 1.53106
upperback 2.64411 -2.06891 1.87473
thorax -5.50284 -1.03261 1.51247
lowerneck -1.96626 -3.58117 -1.26917
upperneck -24.8247 -4.41222 4.27494
head -7.13291 -2.47737 1.86381
rclavicle 1.82882e-014 -7.95139e-015
rhumerus 0.160055 -22.1286 -33.3358
rradius 116.679
rwrist 22.3713
rhand -67.0507 354.345
rfingers 7.12502
rthumb -38.8347 -31.2219
lclavicle 1.82882e-014 -7.95139e-015
lhumerus -36.5222 -1.81056 73.1729
lradius 47.9663
lwrist -5.70912
lhand -34.4481 18.1378
lfingers 7.12502
lthumb -7.61206 47.9808
rfemur -33.1513 21.9105 3.78483
rtibia 34.7187
rfoot -12.0515 -7.51783
rtoes -6.94304
lfemur -0.774779 -0.704899 -17.6507
ltibia 12.7827
lfoot -18.9398 24.745
ltoes -12.094
1968
root -2.92618 18.4721 4.4396 8.74551 -14.1592 4.11115
lowerback 14.8524 -1.84346 1.80462
upperback 2.63026 -2.04356 1.93116
thorax -5.52314 -1.0245 1.41315
lowerneck -2.02946 -3.60163 -1.19173
upperneck -25.0762 -4.43789 4.27551
head -7.2071 -2.4996 1.85745
rclavicle 2.74323e-014 -9.54166e-015
rhumerus 0.404004 -22.5489 -33.2671
rradius 116.683
rwrist 22.4028
rhand -67.068 354.485
rfingers 7.12502
rthumb -38.851 -31.0772
lclavicle 2.74323e-014 -9.54166e-015
lhumerus -36.7273 -1.63459 72.997
lradius 47.6848
lwrist -5.45759
lhand -33.3753 19.2288
lfingers 7.12502
lthumb -6.57652 49.1067
rfemur -33.1011 21.8203 4.1786
rtibia 34.6348
rfoot -12.1344 -7.32006
rtoes -6.81347
lfemur -0.540461 -1.34906 -17.3036
ltibia 12.4621
lfoot -18.9562 25.1064
ltoes -12.4995
1969
root -2.97493 18.4828 4.48415 8.94426 -14.147 4.09219
lowerback 14.8106 -1.84957 1.88938
upperback 2.62728 -2.04002 1.92343
thorax -5.50671 -1.02425 1.35503
lowerneck -2.19599 -3.57619 -1.18118
upperneck -25.2116 -4.39049 4.33126
head -7.22359 -2.48353 1.87115
rclavicle -2.34566e-014 2.62396e-014
rhumerus 0.693631 -22.9874 -33.2313
rradius 116.698
rwrist 22.2752
rhand -66.9327 356.07
rfingers 7.12502
rthumb -38.7234 -29.5291
lclavicle -2.34566e-014 2.62396e-014
lhumerus -36.8263 -1.45869 72.781
lradius 47.3356
lwrist -5.42803
lhand -32.6548 19.5835
lfingers 7.12502
lthumb -5.88096 49.4818
rfemur -33.1095 21.6669 4.34723
rtibia 34.5847
rfoot -12.193 -7.09499
rtoes -6.706
lfemur -0.358164 -1.90684 -17.1761
ltibia 12.2227
lfoot -18.959 25.3599
ltoes -12.8685
1970
root -3.02567 18.4922 4.52244 9.13867 -14.1393 4.23888
lowerback 14.7412 -1.83972 1.7581
upperback 2.60114 -2.04996 1.90506
thorax -5.49251 -1.02694 1.40963
lowerneck -2.3995 -3.56044 -1.23412
upperneck -25.2332 -4.35444 4.41219
head -7.19303 -2.46803 1.90046
rclavicle -6.75868e-015 1.35174e-014
rhumerus 0.957955 -23.3837 -33.169
rradius 116.774
rwrist 22.2141
rhand -66.8657 356.237
rfingers 7.12502
rthumb -38.6601 -29.3798
lclavicle -6.75868e-015 1.35174e-014
lhumerus -36.9241 -1.11413 72.5596
lradius 46.9322
lwrist -5.72513
lhand -32.8757 19.1694
lfingers 7.12502
lthumb -6.09421 49.0617
rfemur -33.2049 21.4563 4.35386
rtibia 34.5925
rfoot -12.1644 -7.03381
rtoes -6.85571
lfemur -0.262369 -2.31955 -17.1853
ltibia 11.9408
lfoot -18.7348 25.5506
ltoes -13.1849
1971
root -3.07684 18.4987 4.55552 9.33351 -14.1252 4.28512
lowerback 14.7632 -1.83935 1.70048
upperback 2.53755 -2.05501 1.91798
thorax -5.56944 -1.02808 1.45929
lowerneck -2.4474 -3.61415 -1.25523
upperneck -25.3655 -4.42799 4.43202
head -7.22573 -2.50516 1.91656
rclavicle -3.02153e-014 -7.95139e-015
rhumerus 1.18423 -23.7532 -33.1233
rradius 116.839
rwrist 22.2796
rhand -66.724 356.11
rfingers 7.12502
rthumb -38.5265 -29.5439
lclavicle -3.02153e-014 -7.95139e-015
lhumerus -37.088 -0.882217 72.3503
lradius 46.5835
lwrist -5.78876
lhand -33.1695 18.858
lfingers 7.12502
lthumb -6.37788 48.742
rfemur -33.3 21.3063 4.47736
rtibia 34.6558
rfoot -12.1785 -6.99665
rtoes -6.89582
lfemur -0.180909 -2.7274 -17.0568
ltibia 11.6311
lfoot -18.4449 25.7109
ltoes -13.222
1972
root -3.12738 18.5062 4.58946 9.48912 -14.1316 4.3031
lowerback 14.8446 -1.82111 1.66948
upperback 2.4636 -2.02964 1.9419
thorax -5.69086 -1.01457 1.50224
lowerneck -2.4439 -3.69016 -1.34725
upperneck -25.4764 -4.52753 4.49103
head -7.25615 -2.55123 1.95933
rclavicle 2.8625e-014 -6.52014e-014
rhumerus 1.39337 -24.0769 -33.0315
rradius 116.897
rwrist 22.1809
rhand -66.6649 355.281
rfingers 7.12502
rthumb -38.4707 -30.389
lclavicle 2.8625e-014 -6.52014e-014
lhumerus -37.2921 -0.719472 72.1891
lradius 46.3378
lwrist -5.8057
lhand -33.3413 18.7782
lfingers 7.12502
lthumb -6.54372 48.6571
rfemur -33.3666 21.2389 4.63145
rtibia 34.7568
rfoot -12.2556 -6.96574
rtoes -7.11174
lfemur -0.0278807 -3.07061 -16.8817
ltibia 11.3112
lfoot -18.2619 25.7074
ltoes -13.0114
1973
root -3.17723 18.5164 4.6226 9.58632 -14.1422 4.46494
lowerback 14.9363 -1.80141 1.5222
upperback 2.45279 -2.02536 1.91517
thorax -5.74847 -1.00962 1.55996
lowerneck -2.65226 -3.70504 -1.49084
upperneck -25.5349 -4.52072 4.65407
head -7.23118 -2.54862 2.03297
rclavicle 4.37326e-014 -4.85035e-014
rhumerus 1.6778 -24.4438 -33.0447
rradius 117
rwrist 22.0731
rhand -66.6384 354.203
rfingers 7.12502
rthumb -38.4457 -31.474
lclavicle 4.37326e-014 -4.85035e-014
lhumerus -37.3974 -0.459445 72.0031
lradius 46.1553
lwrist -5.96989
lhand -33.3975 18.7812
lfingers 7.12502
lthumb -6.59795 48.6584
rfemur -33.4127 21.2803 4.59504
rtibia 34.8564
rfoot -12.3727 -7.05074
rtoes -7.36298
lfemur 0.142736 -3.25361 -16.8543
ltibia 11.0045
lfoot -17.9111 25.6053
ltoes -13.5391
1974
root -3.22674 18.5249 4.65603 9.67729 -14.1318 4.65297
lowerback 15.0115 -1.78842 1.38338
upperback 2.45697 -2.03217 1.84899
thorax -5.78277 -1.01054 1.57234
lowerneck -2.71542 -3.72984 -1.60822
upperneck -25.829 -4.51501 4.8696
head -7.30905 -2.55582 2.12992
rclavicle -3.73715e-014 -1.35174e-014
rhumerus 1.92154 -24.8429 -33.1197
rradius 117.108
rwrist 22.0747
rhand -66.3196 355.426
rfingers 7.12502
rthumb -38.1448 -30.3333
lclavicle -3.73715e-014 -1.35174e-014
lhumerus -37.4172 -0.23293 71.7683
lradius 45.942
lwrist -6.10557
lhand -33.3476 18.8124
lfingers 7.12502
lthumb -6.5498 48.6912
rfemur -33.4385 21.3746 4.51718
rtibia 34.911
rfoot -12.4536 -7.24602
rtoes -7.2302
lfemur 0.212808 -3.33392 -16.8459
ltibia 10.8568
lfoot -17.4609 25.3952
ltoes -14.1443
1975
root -3.27682 18.534 4.68938 9.7965 -14.0683 4.87667
lowerback 14.9778 -1.79931 1.27405
upperback 2.4516 -2.07169 1.73204
thorax -5.76997 -1.02853 1.51697
lowerneck -2.70536 -3.77736 -1.60195
upperneck -26.1441 -4.55591 4.98876
head -7.41179 -2.58948 2.17954
rclavicle -3.97569e-015 0
rhumerus 2.11501 -25.1972 -33.2724
rradius 117.181
rwrist 21.9951
rhand -66.2048 356.243
rfingers 7.12502
rthumb -38.0364 -29.546
lclavicle -3.97569e-015 0
lhumerus -37.4118 -0.0588046 71.4728
lradius 45.7223
lwrist -6.24173
lhand -33.1315 18.6503
lfingers 7.12502
lthumb -6.34121 48.5354
rfemur -33.4519 21.4431 4.39416
rtibia 34.904
rfoot -12.5339 -7.44859
rtoes -6.79613
lfemur 0.133633 -3.34291 -16.8698
ltibia 10.9224
lfoot -16.9653 25.1368
ltoes -14.6202
1976
root -3.32443 18.5484 4.71762 10.0122 -13.9941 4.9381
lowerback 14.9635 -1.82529 1.3431
upperback 2.39751 -2.09829 1.65928
thorax -5.82445 -1.04302 1.40722
lowerneck -2.86838 -3.81652 -1.52663
upperneck -26.1982 -4.60772 4.98838
head -7.40251 -2.62179 2.16665
rclavicle 1.19271e-014 -4.92986e-014
rhumerus 2.31094 -25.4643 -33.4547
rradius 117.269
rwrist 21.933
rhand -66.5645 355.03
rfingers 7.12502
rthumb -38.3759 -30.6658
lclavicle 1.19271e-014 -4.92986e-014
lhumerus -37.4972 0.0975025 71.2104
lradius 45.6335
lwrist -6.37472
lhand -32.9661 18.7549
lfingers 7.12502
lthumb -6.18147 48.6447
rfemur -33.525 21.5369 4.40393
rtibia 34.8697
rfoot -12.6531 -7.67904
rtoes -6.564
lfemur -0.108183 -3.37472 -16.7073
ltibia 11.1016
lfoot -16.6393 24.8693
ltoes -14.6953
1977
root -3.37268 18.5655 4.74641 10.1487 -13.9471 4.96947
lowerback 14.9917 -1.82325 1.39804
upperback 2.39038 -2.08927 1.6037
thorax -5.85169 -1.03995 1.31693
lowerneck -2.9071 -3.88006 -1.46576
upperneck -26.4097 -4.69333 4.99404
head -7.46609 -2.6716 2.16776
rclavicle -1.98785e-014 2.54444e-014
rhumerus 2.49431 -25.7917 -33.6041
rradius 117.333
rwrist 22.0793
rhand -66.4665 355.717
rfingers 7.12502
rthumb -38.2834 -30.005
lclavicle -1.98785e-014 2.54444e-014
lhumerus -37.47 0.209704 70.9894
lradius 45.4752
lwrist -6.4842
lhand -33.1761 19.0299
lfingers 7.12502
lthumb -6.38419 48.9137
rfemur -33.5031 21.6996 4.47248
rtibia 34.8192
rfoot -12.7483 -7.92239
rtoes -6.42799
lfemur -0.353483 -3.20599 -16.51
ltibia 11.4601
lfoot -16.2425 24.4766
ltoes -15.3315
